<?xml version="1.0" encoding="iso-8859-1"?>
<!-- Generator: Adobe Illustrator 19.0.0, SVG Export Plug-In . SVG Version: 6.00 Build 0)  -->
<svg version="1.1" id="Capa_1" xmlns="http://www.w3.org/2000/svg" xmlns:xlink="http://www.w3.org/1999/xlink" x="0px" y="0px"
	 viewBox="0 0 512 512" style="enable-background:new 0 0 512 512;" xml:space="preserve">
<path style="fill:#0050C7;" d="M90,512H45c-8.284,0-15-6.716-15-15v-76h60l30,45L90,512z"/>
<path style="fill:#004597;" d="M474.897,421H422l-30,45l30,46h45c8.291,0,15-6.709,15-15v-63.563
	C482,428.112,479.072,423.662,474.897,421z"/>
<path style="fill:#4C5CE1;" d="M452,451h-45c-8.291,0-15-6.709-15-15v-90c0-8.291,6.709-15,15-15h45c33.091,0,60,26.909,60,60
	S485.091,451,452,451z"/>
<path style="fill:#6E77E5;" d="M105,451H60c-33.091,0-60-26.909-60-60s26.909-60,60-60h45c8.291,0,15,6.709,15,15v90
	C120,444.291,113.291,451,105,451z"/>
<rect x="90" y="301" style="fill:#C5C9F7;" width="332" height="211"/>
<rect x="256" y="301" style="fill:#A8AFF1;" width="166" height="211"/>
<path style="fill:#007BFF;" d="M271,75v61c0,8.399-6.599,15-15,15s-15-6.601-15-15V75c0-8.401,6.599-15,15-15S271,66.599,271,75z"/>
<path style="fill:#0050C7;" d="M256,151V60c8.401,0,15,6.599,15,15v61C271,144.399,264.401,151,256,151z"/>
<path style="fill:#7986E8;" d="M422,286c0,8.399-6.599,15-15,15H105c-8.401,0-15-6.601-15-15c0-90.901,75.099-165,166-165
	S422,195.099,422,286z"/>
<path style="fill:#6E77E5;" d="M422,286c0,8.399-6.599,15-15,15H256V121C346.901,121,422,195.099,422,286z"/>
<g>
	<path style="fill:#E1E4FB;" d="M452,301c0,16.5-13.5,30-30,30H90c-16.5,0-30-13.5-30-30s13.5-30,30-30h332
		C438.5,271,452,284.5,452,301z"/>
	<circle style="fill:#E1E4FB;" cx="195" cy="226" r="15"/>
</g>
<circle style="fill:#C5C9F7;" cx="316" cy="226" r="15"/>
<path style="fill:#7986E8;" d="M346,421H165c-8.401,0-15,6.599-15,15v76h211v-76C361,427.599,354.401,421,346,421z"/>
<path style="fill:#00E3FF;" d="M256,0c-24.901,0-45,20.099-45,45s20.099,45,45,45s45-20.099,45-45S280.901,0,256,0z"/>
<path style="fill:#C5C9F7;" d="M452,301c0,16.5-13.5,30-30,30H256v-60h166C438.5,271,452,284.5,452,301z"/>
<path style="fill:#00D0FF;" d="M256,90V0c24.901,0,45,20.099,45,45S280.901,90,256,90z"/>
<path style="fill:#6E77E5;" d="M361,436v76H256v-91h90C354.401,421,361,427.599,361,436z"/>
<g>
</g>
<g>
</g>
<g>
</g>
<g>
</g>
<g>
</g>
<g>
</g>
<g>
</g>
<g>
</g>
<g>
</g>
<g>
</g>
<g>
</g>
<g>
</g>
<g>
</g>
<g>
</g>
<g>
</g>
</svg>
